# xmcd CD database file
#
# Track frame offsets:
#	157
#	31097
#	52550
#	69620
#	93160
#	112075
#	142177
#	165000
#	192697
#	229535
#	251227
#	271725
#	295297
#
# Disc length: 4341 seconds
#
# Revision: 1
# Processed by: cddbd v1.4PL0 Copyright (c) Steve Scherf et al.
# Submitted via: CDex 1.50beta10
#
DISCID=b110f30d
DTITLE=Billy Taylor - Solo
DYEAR=1988
DGENRE=Jazz
TTITLE0=All the Things You Are
TTITLE1=A Bientot
TTITLE2=Handle With Care
TTITLE3=Old Folks
TTITLE4=A Tune for Howard to Improvise Upon
TTITLE5=Cool and Caressing
TTITLE6=I Didn't Know What Time It Was
TTITLE7=Yesterdays
TTITLE8=More Than You Know
TTITLE9=A Bit of Bedlam
TTITLE10=For Undine
TTITLE11=Billy's Beat
TTITLE12=Gone With the Wind
EXTD=YEAR: 1988
EXTT0=
EXTT1=
EXTT2=
EXTT3=
EXTT4=
EXTT5=
EXTT6=
EXTT7=
EXTT8=
EXTT9=
EXTT10=
EXTT11=
EXTT12=
PLAYORDER=
